# xmcd CD database file
#
# Track frame offsets:
#	150
#	10613
#	26209
#	40579
#	58775
#	80539
#	100315
#	121356
#	130448
#	152379
#	167915
#	179986
#	196092
#	209698
#	223847
#	240019
#	253965
#	267541
#
# Disc length: 3853 seconds
#
# Revision: 3
# Processed by: cddbd v1.5.2PL0 Copyright (c) Steve Scherf et al.
# Submitted via: Feurio! 1.68 - http://www.feurio.com
#
DISCID=070f0b12
DTITLE=Various Artist - Summer of Love Set 1 - CD1
DYEAR=1900
DGENRE=blues
TTITLE0=The Byrds - Mr. Tambourine Man
TTITLE1=Esther and Abi Ofarim - Morning Of My Life
TTITLE2=Mama Cass - Dream A Little Dream Ofzu muz,mnki9 . ji,j,muiu,m7i ,gm, 
TTITLE2=9k,   zgggg mtzttnr6nkmnjjjv     
TTITLE2=bgvvgthgzgzzzzzzzzzzzzzzzzzzzzzzzzzzzzzzzzzzzzzzzzzzzzzzzzzzzzzaMAJH Me
TTITLE3=The Holies - The Air that I Breathe
TTITLE4=Simon and Garfunkel - Bridge Over Troubled Water
TTITLE5=Ralph Mc Tell - Streets Of London
TTITLE6=Peter Sanrstedt - Where Do You Go To
TTITLE7=Tim Hardin - How Can We Hang On To A Dream
TTITLE8=Wishful Thinking - Hiroshima
TTITLE9=Medicine Head - One And One Is One
TTITLE10=Graham Bonnett and The Marbels - Only One Woman
TTITLE11=Nitty Gritty Dirt Band - Mr. Bojangles
TTITLE12=The Flying Burrito Brothers - Christine's Tune
TTITLE13=The Seekers - The Carnival Is Over
TTITLE14=Hoan Baez - The Night They Drove Old Dixie Down
TTITLE15=The Savage Rose - Help The Lonely Child
TTITLE16=The Walker Brothers - The Sun Ain't Gonna Shine Anymore
TTITLE17=Uriah Heep - Lady in Black
EXTD=
EXTT0=
EXTT1=
EXTT2=
EXTT3=
EXTT4=
EXTT5=
EXTT6=
EXTT7=
EXTT8=
EXTT9=
EXTT10=
EXTT11=
EXTT12=
EXTT13=
EXTT14=
EXTT15=
EXTT16=
EXTT17=
PLAYORDER=
